# xmcd CD database file
#
# Track frame offsets:
#	150
#	16711
#	27266
#	42069
#	56934
#	70977
#	86251
#	103639
#
# Disc length: 1643 seconds
#
# Revision: 0
# Processed by: cddbd v1.4PL0 Copyright (c) Steve Scherf et al.
# Submitted via: CDex 1.50beta10
#
DISCID=5b066908
DTITLE=Ana Person - Autoral
DYEAR=1999
DGENRE=New Age
TTITLE0=Mistura Brasil
TTITLE1=Tempêro
TTITLE2=Amigo de Verdade
TTITLE3=Doida Varrida
TTITLE4=Tudo Estranho
TTITLE5=Fora de Compasso
TTITLE6=Tranças de Alho
TTITLE7=O planeta pede
EXTD=YEAR: 1999
EXTT0=
EXTT1=
EXTT2=
EXTT3=
EXTT4=
EXTT5=
EXTT6=
EXTT7=
PLAYORDER=
